<svg width="15" height="20" viewBox="0 0 15 20" fill="none" xmlns="http://www.w3.org/2000/svg">
<path id="Vector" d="M10.4143 15.0899L10.566 18.1661L7.45447 16.0038L4.32551 18.1681L4.47731 15.0899H3.16321L2.93672 19.6837H4.44166L7.45274 17.6009L10.4499 19.6837H11.9549L11.7284 15.0899H10.4143ZM13.9841 5.69383L13.8941 3.72287L12.2323 2.65945L11.1687 0.997541L9.19771 0.907307L7.44581 0L5.69391 0.907512L3.72291 0.997746L2.65929 2.65945L0.997541 3.72287L0.907553 5.69383L0 7.44577L0.907553 9.19775L0.997787 11.1687L2.65929 12.2321L3.72274 13.894L5.69375 13.9841L7.44581 14.8916L9.19771 13.9841L11.1687 13.894L12.2322 12.2321L13.894 11.1688L13.9841 9.19792L14.8916 7.44594L13.9841 5.69383ZM12.6861 8.84994L12.6138 10.4296L11.2818 11.2819L10.4295 12.6139L8.84978 12.6861L7.44581 13.4134L6.04168 12.6861L4.46197 12.6139L3.60966 11.2819L2.27784 10.4296L2.2057 8.84994L1.47804 7.44577L2.20553 6.04189L2.27784 4.46197L3.60966 3.60966L4.46197 2.27772L6.04168 2.20553L7.44581 1.47816L8.84994 2.20549L10.4297 2.27768L11.282 3.60962L12.6138 4.46197L12.6859 6.04168L13.4136 7.44577L12.6861 8.84994Z" fill="white"/>
</svg>
