<svg width="17" height="21" viewBox="0 0 17 21" fill="none" xmlns="http://www.w3.org/2000/svg">
<g id="Vector usabilidad">
<path id="Vector" d="M12.9395 0.00488281L14.0844 2.16113L16.5332 2.4587L14.7363 4.07804L15.0957 6.47363L12.9395 5.12598L10.7832 6.47363L11.1426 4.07804L9.3457 2.4587L11.8613 2.16113L12.9395 0.00488281Z" fill="white"/>
<path id="Vector_2" d="M12.7363 8.08991L11.3434 7.73197C11.0937 8.69383 10.5646 9.5601 9.82276 10.2214C9.08096 10.8826 8.15982 11.3092 7.17571 11.4471C6.19159 11.5851 5.18866 11.4283 4.29362 10.9966C3.39858 10.5648 2.65159 9.87745 2.14702 9.02134C1.64244 8.16523 1.40293 7.17878 1.45873 6.18661C1.51454 5.19444 1.86316 4.24107 2.46055 3.44694C3.05793 2.65281 3.87729 2.05355 4.8151 1.72488C5.75291 1.3962 6.7671 1.35286 7.72953 1.60031L8.08819 0.208095C6.68518 -0.156849 5.2002 -0.0393846 3.87201 0.541603C2.54382 1.12259 1.44959 2.13334 0.765257 3.41136C0.0809193 4.68937 -0.153767 6.16038 0.0989315 7.58789C0.35163 9.01539 1.07703 10.3165 2.1585 11.2819V20.1297L6.471 17.2547L10.7835 20.1297V11.2948C11.7381 10.444 12.4179 9.32835 12.7363 8.08991ZM9.346 17.4437L6.471 15.5268L3.596 17.4437V12.2594C4.488 12.7075 5.47227 12.9412 6.47049 12.942C7.46872 12.9427 8.45334 12.7105 9.346 12.2637V17.4437Z" fill="white"/>
</g>
</svg>
